# xmcd
#
# Track frame offsets:
#	150
#	19498
#	36878
#	53636
#
# Disc length: 1107 seconds
#
# Revision: 0
# Processed by: cddbd v1.5.2PL0 Copyright (c) Steve Scherf et al.
# Submitted via: audiograbber 1.83.01
#
DISCID=2d045104
DTITLE=Janina Frostell - I'll Save My Tears [CDM)
DYEAR=2002
DGENRE=Dance
TTITLE0=I'll Save My Tears
TTITLE1=I'll Save My Tears (Illusion Rake Club Remix Radio Edit)
TTITLE2=I'll Save My Tears (DJ Slow Remix)
TTITLE3=I'll Save My Tears (Illusion Rake Club Mix)
EXTD=TR.
EXTT0=
EXTT1=
EXTT2=
EXTT3=
PLAYORDER=
